<svg width="250" height="169" viewBox="0 0 250 169" fill="none" xmlns="http://www.w3.org/2000/svg">
<g clip-path="url(#clip0_396_955)">
<path fill-rule="evenodd" clip-rule="evenodd" d="M148.738 -26.3028C145.179 -25.7168 142.277 -23.2686 142.277 -20.8506C142.277 -19.699 141.596 -18.1415 140.763 -17.3911C138.844 -15.6617 138.823 -12.9126 140.714 -11.0294C142.24 -9.50963 146.723 -7.97482 149.661 -7.96804C151.265 -7.96351 151.364 -7.65504 151.364 -2.68407C151.364 1.45577 151.124 2.59537 150.252 2.59537C149.641 2.59537 149.296 2.17151 149.487 1.65262C149.678 1.13448 149.55 0.266386 149.203 -0.275135C148.693 -1.07233 147.571 -1.09119 143.342 -0.373936C140.466 0.113281 137.541 1.01154 136.842 1.62169C136.079 2.28766 134.944 2.53353 134.002 2.23562C129.882 0.933104 134.551 -0.925262 143.792 -1.66061C146.916 -1.9095 149.613 -2.24059 149.785 -2.39672C149.957 -2.55284 146.107 -2.60638 141.227 -2.51588C131.252 -2.33035 132.246 -2.91636 128.546 4.96207C127.164 7.90499 126.21 8.79118 122.539 10.5379C113.823 14.6876 112.166 18.4269 116.51 24.1446C118.326 26.5339 118.765 27.8658 118.782 31.0312C118.801 34.7419 117.636 38.7973 116.549 38.7973C116.276 38.7973 115.308 40.1164 114.399 41.7281C112.491 45.1085 112.35 48.6125 113.863 54.9252C115.545 61.9393 118.1 63.9176 129.603 67.1124C133.699 68.2498 134.864 69.7197 131.668 69.7197C127.148 69.7197 122.565 71.4936 118.788 74.705C116.592 76.5709 113.817 78.2928 112.619 78.5311C111.422 78.7694 110.258 79.2604 110.034 79.6217C109.81 79.983 108.644 80.2786 107.444 80.2786C106.244 80.2786 105.079 80.5743 104.854 80.9355C104.63 81.2968 103.503 81.7991 102.349 82.0525C99.8059 82.6106 92.924 88.9542 91.146 92.3791C89.8337 94.9072 89.8663 96.2233 91.4565 104.832C93.0429 113.417 93.6972 114.82 97.2449 117.251C99.1062 118.527 100.629 120.068 100.629 120.675C100.629 121.283 99.5446 122.746 98.2194 123.925C94.9406 126.843 94.256 132.436 96.2892 139.688C97.0714 142.479 97.993 146.29 98.3376 148.157C98.91 151.259 98.7972 151.685 97.0313 153.118C95.248 154.563 95.1397 154.993 95.6297 158.674C96.8776 168.041 104.333 176.948 109.328 175.039C110.631 174.542 110.413 173.782 113.501 189.579C115.289 198.727 115.616 201.776 115.037 203.866C114.265 206.649 114.655 208.035 115.723 206.312C116.241 205.478 116.41 205.481 116.714 206.334C117.553 208.684 118.055 206.16 117.356 203.118C116.596 199.811 114.608 189.959 113.42 183.605C113.071 181.738 112.466 178.916 112.076 177.333C111.173 173.666 112.71 172.8 115.506 175.401C118.943 178.599 119.579 180.571 123.33 199.643C124.046 203.279 124.853 206.475 125.124 206.745C126.303 207.918 126.205 206.169 124.784 200.646C123.948 197.397 123.379 194.015 123.519 193.131C123.911 190.657 126.857 196.686 127.533 201.346C128.115 205.357 129.338 208.488 129.382 206.081C129.394 205.376 128.751 201.303 127.952 197.03C127.153 192.757 126.287 187.696 126.028 185.782L125.557 182.303L128.791 181.871C130.57 181.633 132.088 181.502 132.164 181.579C132.239 181.656 132.88 185.105 133.587 189.242C134.293 193.379 135.175 197.559 135.546 198.531C135.917 199.501 136.22 201.611 136.22 203.219C136.22 204.827 136.613 206.384 137.095 206.681C137.725 207.069 137.832 206.5 137.48 204.651L136.988 202.083L138.481 203.968C139.301 205.005 139.98 206.108 139.989 206.42C139.998 206.731 140.353 206.985 140.777 206.985C141.201 206.985 140.365 204.694 138.92 201.894C136.563 197.329 134.958 191.825 134.491 186.705C134.157 183.043 136.075 184.481 139.632 190.559C141.642 193.993 144.632 199.095 146.277 201.894C149.28 207.01 150.291 207.753 151.97 206.08C152.677 205.377 152.879 205.377 152.879 206.08C152.879 206.578 153.182 206.985 153.552 206.985C153.922 206.985 154.178 206.392 154.12 205.665C154.052 204.809 154.649 204.257 155.825 204.091C157.335 203.878 157.566 204.096 157.22 205.41C156.853 206.809 157.138 206.985 159.765 206.985C161.836 206.985 162.723 206.659 162.723 205.898C162.723 205.3 163.084 204.59 163.524 204.319C164.8 203.533 168.024 204.643 168.024 205.868C168.024 206.66 168.85 206.978 170.864 206.963C173.116 206.944 173.436 206.784 172.41 206.188C170.911 205.318 171.328 203.537 173.526 201.413C175.134 199.86 174.826 199.643 177.944 204.534C178.803 205.882 179.86 206.985 180.294 206.985C180.754 206.985 180.649 206.371 180.043 205.508C170.93 192.544 170.12 191.138 168.728 185.858C167.927 182.817 166.737 179.519 166.085 178.528C165.433 177.537 165.006 176.42 165.136 176.047C165.315 175.536 185.565 201.805 188.618 206.507C188.907 206.954 189.363 207.101 189.631 206.834C190.117 206.35 188.042 203.112 184.921 199.482C183.266 197.558 182.036 195.913 177.166 189.114C175.739 187.121 172.71 183.008 170.436 179.974C167.379 175.894 166.524 174.238 167.153 173.612C168.221 172.547 170.577 174.646 175.48 181.028C181.887 189.368 196.985 206.985 197.727 206.985C198.441 206.985 195.765 203.546 188.041 194.541C183.438 189.174 182.601 188.158 176.011 179.944C173.231 176.479 171.133 173.468 171.348 173.254C173.947 170.666 193.847 186.33 202.703 197.935C207.76 204.561 210.43 207.596 210.43 206.72C210.43 206.374 209.744 205.223 208.905 204.161C206.966 201.706 207.404 201.279 210.321 202.781C211.589 203.434 213.354 203.968 214.244 203.968C215.133 203.968 219.911 201.866 224.861 199.296C233.102 195.018 235.644 194.233 234.315 196.375C234.041 196.816 232.047 198.016 229.885 199.04C222.818 202.389 215.624 206.377 215.991 206.742C216.188 206.938 220.209 205.122 224.925 202.706C229.641 200.289 233.761 198.199 234.081 198.061C234.4 197.922 234.696 199.958 234.737 202.586C234.831 208.547 235.986 205.806 236.1 199.347C236.218 192.75 235.675 192.704 224.448 198.35C215.651 202.776 214.49 203.173 212.369 202.475C208.87 201.325 202.459 195.379 200.605 191.565C198.601 187.441 199.296 185.649 203.419 184.311C204.984 183.802 208.72 182.248 211.72 180.857C214.72 179.464 217.564 178.325 218.041 178.325C219.12 178.325 229.429 188.164 229.028 188.811C228.437 189.763 221.788 188.755 221.788 187.713C221.788 186.892 221.125 186.938 218.381 187.952C216.507 188.644 214.973 189.439 214.973 189.719C214.973 190 216.396 190.796 218.135 191.489C220.989 192.626 221.361 192.634 221.959 191.571C222.858 189.972 229.931 189.969 232.221 191.567C233.753 192.635 233.904 192.631 233.904 191.52C233.904 190.506 234.673 190.338 238.448 190.524C243.193 190.758 244.328 191.538 241.098 192.345C240.057 192.606 239.205 193.121 239.205 193.491C239.205 194.454 239.546 194.358 242.695 192.507C245.539 190.836 248.682 190.59 269.305 190.424C271.492 190.407 273.281 190.06 273.281 189.654C273.281 189.191 265.476 188.914 252.288 188.91L231.294 188.905L228.054 185.677L224.814 182.451L235.796 176.972C241.836 173.959 246.777 171.215 246.777 170.876C246.777 170.536 241.713 172.822 235.522 175.954L224.268 181.651L221.834 179.611C217.426 175.916 216.679 175.986 205.211 181.155C196.328 185.16 194.215 185.909 193.07 185.462C192.138 185.099 192.359 184.744 194.081 183.836C195.292 183.198 197.166 182.401 198.246 182.065C201.122 181.168 212.735 176.973 228.225 171.235C246.258 164.555 246.398 164.498 245.531 164.21C244.764 163.956 236.754 166.709 220.652 172.763C215.655 174.642 209.18 177.039 206.265 178.089C203.349 179.139 198.816 180.828 196.19 181.842L191.415 183.686L186.345 179.978C177.14 173.244 175.461 172.366 171.431 172.182C169.349 172.087 167.071 172.27 166.368 172.59C165.275 173.087 165.174 172.865 165.663 171.034C166.208 168.993 166.734 168.77 177.54 166.021C183.759 164.439 190.041 162.854 191.498 162.501C192.956 162.146 198.749 160.617 204.372 159.101C209.994 157.585 218.002 155.517 222.167 154.504C235.55 151.25 246.777 147.963 246.777 147.297C246.777 146.378 247.542 146.215 228.725 151.138C200.302 158.573 177.719 164.275 166.699 166.798C165.219 167.137 164.995 166.886 164.995 164.891C164.995 162.697 165.189 162.556 169.349 161.737C175.897 160.448 178.347 159.599 186.06 155.947C198.683 149.973 205.886 140.688 205.886 130.393C205.886 125.596 204.072 119.606 202.107 117.917C200.945 116.918 200.773 115.96 201.092 112.261C201.418 108.497 201.184 107.266 199.585 104.312L197.693 100.818L199.225 98.3079C201.394 94.7563 201.883 88.0522 200.229 84.5783C198.97 81.9386 198.979 81.7712 200.487 79.6624C201.345 78.4617 202.472 75.9004 202.99 73.9697C203.811 70.9114 203.766 70.1783 202.638 68.2762C201.925 67.0755 201.343 65.5822 201.343 64.9577C201.343 64.3324 199.935 62.0479 198.214 59.8796C195.385 56.3152 195.214 55.8665 196.425 55.1915C198.896 53.8143 203.702 49.1125 204.799 46.9993C205.397 45.8476 205.886 42.9861 205.886 40.6406C205.886 37.0732 205.527 35.9245 203.698 33.6264C201.238 30.5372 195.944 27.4736 190.51 25.9931C188.51 25.4486 187.159 24.7162 187.51 24.367C187.861 24.0178 191.542 22.6248 195.692 21.271C203.01 18.8847 203.236 18.7437 203.236 16.558C203.236 14.8392 202.738 14.0684 201.132 13.3013C199.163 12.3616 199.037 12.0177 199.16 7.92912C199.308 3.00038 198.855 1.84117 196.781 1.84117C194.978 1.84117 193.774 3.9997 193.759 7.25938C193.738 11.5418 193.026 12.0048 187.973 11.0176C185.539 10.5424 182.695 10.065 181.654 9.95718C180.157 9.80182 179.269 8.76553 177.411 5.00657C176.118 2.39174 174.414 -0.184631 173.624 -0.718609C170.946 -2.5287 155.908 -4.29128 155.908 -2.79494C155.908 -2.44121 159.06 -1.95928 162.912 -1.72472C170.056 -1.28879 172.567 -0.746513 172.567 0.362925C172.567 1.61038 169.563 1.8917 167.869 0.802628C166.913 0.187948 163.608 -0.557962 160.524 -0.854366C155.096 -1.37628 154.93 -1.34309 155.329 0.175127C155.583 1.14504 155.326 1.90226 154.654 2.15869C153.763 2.49959 153.608 1.65714 153.791 -2.50607C154.002 -7.2983 154.122 -7.59847 155.908 -7.79306C156.949 -7.90619 159.232 -8.37003 160.981 -8.82255C163.748 -9.5398 164.388 -10.1243 165.904 -13.3169L167.645 -16.9876V-17.521C167.423 -17.8981 167.732 -17.3996 167.423 -17.8981C167.448 -18.2752 167.448 -17.8981 167.423 -18.6523C167.405 -19.1694 167.214 -18.6023 167.423 -19.8423C167.65 -21.1893 167.151 -21.2918 164.806 -20.383C163.808 -19.9961 163.48 -20.2495 163.48 -21.4072C163.48 -24.8268 155.623 -27.4364 148.738 -26.3028ZM155.529 -23.0476C155.272 -22.6328 154.079 -22.2934 152.879 -22.2934C151.679 -22.2934 150.486 -22.6328 150.229 -23.0476C149.945 -23.5039 150.993 -23.8018 152.879 -23.8018C154.765 -23.8018 155.812 -23.5039 155.529 -23.0476ZM147.2 -22.2934C147.457 -21.8786 147.306 -21.5392 146.866 -21.5392C146.425 -21.5392 146.064 -21.8786 146.064 -22.2934C146.064 -22.7082 146.214 -23.0476 146.398 -23.0476C146.582 -23.0476 146.942 -22.7082 147.2 -22.2934ZM159.694 -22.2934C159.694 -21.8786 159.353 -21.5392 158.937 -21.5392C158.52 -21.5392 158.18 -21.8786 158.18 -22.2934C158.18 -22.7082 158.52 -23.0476 158.937 -23.0476C159.353 -23.0476 159.694 -22.7082 159.694 -22.2934ZM161.473 -19.6296C161.239 -19.0209 160.746 -18.5224 160.379 -18.5224C160.012 -18.5224 159.793 -17.7961 159.893 -16.9084C159.992 -16.0207 159.647 -15.1443 159.126 -14.9603C157.712 -14.4602 157.94 -18.5171 159.417 -20.1424C160.801 -21.6659 162.13 -21.3341 161.473 -19.6296ZM146.67 -19.88C147.169 -19.3822 147.578 -18.1694 147.578 -17.1852C147.578 -14.2936 144.982 -15.3314 144.691 -18.3399C144.443 -20.8899 145.124 -21.4193 146.67 -19.88ZM155.719 -19.2872C156.293 -19.2804 156.665 -18.2403 156.665 -16.6369V-13.9972H152.5C148.368 -13.9972 148.335 -14.0145 148.335 -16.2839C148.335 -18.7879 150.486 -20.2518 153.258 -19.6341C154.091 -19.4493 155.198 -19.2924 155.719 -19.2872ZM146.261 -13.8916C148.206 -12.8553 157.042 -12.9873 159.099 -14.0839C159.908 -14.5145 161.14 -14.6307 161.836 -14.3418C164.254 -13.338 158.832 -11.8039 152.739 -11.7685C146.669 -11.733 142.61 -12.7022 143.413 -13.9957C144.007 -14.9535 144.289 -14.9429 146.261 -13.8916ZM150.607 -10.0723C150.607 -9.34974 149.371 -9.40631 146.821 -10.2442C145.183 -10.7827 145.311 -10.8536 147.768 -10.7692C149.33 -10.7156 150.607 -10.4019 150.607 -10.0723ZM155.908 -10.2261C154.406 -9.25924 151.143 -9.25924 151.743 -10.2261C152.001 -10.6409 153.298 -10.9751 154.627 -10.969C156.466 -10.96 156.772 -10.7827 155.908 -10.2261ZM144.549 0.905197C144.549 1.97617 141.585 3.32696 140.308 2.83898C139.14 2.39249 139.149 2.27031 140.423 1.34264C141.921 0.252056 144.549 -0.026247 144.549 0.905197ZM164.797 0.805641C165.729 1.05453 166.306 1.55909 166.078 1.92715C165.457 2.92798 163.292 2.6904 161.632 1.43993C160.177 0.344067 160.177 0.332756 161.632 0.343315C162.44 0.348595 163.864 0.556753 164.797 0.805641ZM177.04 7.62442C179.308 14.8203 179.167 17.362 176.419 18.7769C175.205 19.4021 172.224 20.1352 169.793 20.406C167.362 20.6767 164.862 21.2122 164.238 21.5968C162.795 22.4845 170.236 21.7062 174.46 20.5274C179.154 19.2173 180.009 18.1667 179.567 14.2554C179.126 10.3607 178.877 10.4421 187.187 11.7462C190.204 12.2198 193.043 13.1075 193.551 13.735C194.209 14.5495 195.33 14.7539 197.526 14.4605C201.699 13.9032 202.151 15.1514 198.147 16.1733C196.365 16.6281 193.373 17.5181 191.498 18.1501C182.651 21.1368 173.51 23.6966 171.665 23.7049C170.545 23.7094 169.412 24.0608 169.148 24.4855C168.407 25.6801 174.296 24.6265 182.033 22.1799C195.375 17.9616 202.229 16.0481 202.616 16.4335C203.591 17.405 201.58 18.4978 195.454 20.326C191.821 21.4106 187.485 22.7553 185.819 23.3142C178.255 25.8536 173.789 26.742 164.616 27.5332C154.519 28.4043 152.382 28.749 153.039 29.4029C153.391 29.7543 164.668 28.7528 171.431 27.7693C173.325 27.494 174.176 27.5935 173.703 28.034C172.526 29.1283 167.394 30.3834 161.777 30.949C158.965 31.2318 156.665 31.7598 156.665 32.1226C156.665 32.4846 157.943 32.5962 159.505 32.3692C161.067 32.1422 164.011 31.8842 166.049 31.7945C170.042 31.6195 170.095 31.6768 171.38 37.4774C171.632 38.6185 172.352 39.5515 172.978 39.5515C173.97 39.5515 173.98 39.3335 173.048 37.8545C172.461 36.9216 171.762 34.9184 171.497 33.4047L171.013 30.6518L176.529 27.9367C179.564 26.4434 182.537 25.2216 183.136 25.2216C186.595 25.2216 196.745 29.1789 199.661 31.6647C202.574 34.1476 202.856 34.7019 202.852 37.9133C202.844 43.815 199.481 47.482 189.598 52.37C183.313 55.4781 176.276 57.5702 166.509 59.2347C158.754 60.5561 141.808 60.3827 134.498 58.9067C126.724 57.3372 118.934 53.5164 116.72 50.1873C113.624 45.5293 115.158 40.1865 119.957 38.9157C121.459 38.5175 122.292 37.7663 122.454 36.6599C122.757 34.5956 127.331 32.1603 132.138 31.5041L135.634 31.0267L135.082 34.3467C134.395 38.4828 134.204 38.7973 132.389 38.7973C131.58 38.7973 130.919 39.1367 130.919 39.5515C130.919 40.4784 131.11 40.4829 133.415 39.6096C134.759 39.1012 135.488 37.9842 136.127 35.4561L137.002 31.9981L146.644 32.4831C157.32 33.0193 159.263 32.4318 149.093 31.7417C145.553 31.5018 142.145 31.2514 141.52 31.1851C140.896 31.1195 143.11 30.6194 146.442 30.0741L152.5 29.0823L145.306 29.4127C141.35 29.5952 135.387 29.9459 132.055 30.1933C128.474 30.4595 125.16 30.3192 123.951 29.8509C121.292 28.8199 115.017 20.8524 115.017 18.5054C115.017 16.7579 115.07 16.7398 116.486 18.0166C117.662 19.0763 118.698 19.24 121.652 18.8357C125.816 18.2648 126.635 18.8184 127.484 22.7704C127.926 24.8316 128.331 25.205 130.032 25.119C131.817 25.0285 131.854 24.978 130.351 24.6891C128.879 24.407 128.632 23.8564 128.533 20.6435C128.471 18.5989 128.386 16.5014 128.344 15.9825C128.303 15.4644 129.206 14.9327 130.351 14.8014L132.433 14.5624L132.458 19.7038C132.477 23.8964 132.651 24.625 133.404 23.6543C134.201 22.6263 136.117 22.5109 147.442 22.8096C154.655 22.9989 160.857 22.8564 161.224 22.4913C161.607 22.109 156.314 21.8141 148.754 21.796C133.602 21.7598 133.197 21.6157 133.179 16.2676C133.163 11.6262 132.408 10.5575 129.543 11.1277C127.349 11.5651 127.281 11.5003 127.871 9.54086C128.209 8.41709 128.849 6.57607 129.295 5.45004C130.084 3.45215 130.166 3.42802 132.679 4.4741C134.142 5.0835 139.495 5.76907 145.08 6.06246C153.791 6.52026 154.961 6.43881 155.384 5.34144C155.897 4.008 158.18 3.61355 158.18 4.85799C158.18 5.27281 159.052 5.6122 160.117 5.6122C161.183 5.6122 161.868 5.31052 161.64 4.94246C161.411 4.57441 162.243 4.12415 163.488 3.94163C164.948 3.72819 165.752 3.93786 165.752 4.53218C165.752 5.51038 168.865 5.0307 172.567 3.48232C173.609 3.04714 174.685 2.66929 174.958 2.64289C175.231 2.61725 176.169 4.85875 177.04 7.62442ZM197.351 3.80512C197.1 4.05552 196.446 4.08267 195.9 3.8647C195.296 3.62411 195.476 3.44536 196.358 3.40916C197.156 3.37673 197.603 3.55472 197.351 3.80512ZM198.164 9.57178C197.968 12.9529 197.714 13.5314 196.421 13.5314C195.127 13.5314 194.873 12.9529 194.677 9.57178C194.456 5.75022 194.517 5.6122 196.421 5.6122C198.324 5.6122 198.385 5.75022 198.164 9.57178ZM126.11 13.7199L125.801 17.3024L121.838 17.5566C115.022 17.9932 114.997 15.5232 121.782 12.0018C123.683 11.0153 125.505 10.1917 125.829 10.1729C126.154 10.1533 126.281 11.7499 126.11 13.7199ZM131.07 13.3051C130.364 14.0088 129.959 14.0088 129.253 13.3051C128.546 12.6014 128.748 12.4001 130.162 12.4001C131.575 12.4001 131.777 12.6014 131.07 13.3051ZM121.293 25.7819C123.146 27.6282 124.022 27.8809 129.416 28.1245C132.742 28.2753 135.462 28.1079 135.462 27.7527C135.462 27.3974 132.895 27.0724 129.76 27.0294C125.038 26.9645 123.762 26.6734 122.329 25.3324C119.786 22.9529 118.857 23.3564 121.293 25.7819ZM152.368 25.5285C148.13 25.9818 144.384 26.6334 144.043 26.9766C143.702 27.3198 145.635 27.3846 148.34 27.1199C159.889 25.9909 167.666 25.0617 167.961 24.7751C168.481 24.2675 160.579 24.6491 152.368 25.5285ZM137.734 27.3326C137.734 27.6644 138.927 27.7972 140.384 27.6275C141.842 27.4578 143.035 27.1863 143.035 27.0249C143.035 26.8627 141.842 26.73 140.384 26.73C138.927 26.73 137.734 27.0015 137.734 27.3326ZM123.914 30.9762C125.951 31.5199 126.127 32.5012 124.293 33.0811C122.373 33.6875 121.537 33.3195 121.425 31.8209C121.318 30.3645 121.451 30.3192 123.914 30.9762ZM189.227 31.9943C188.602 32.3526 185.107 33.0661 181.461 33.5804C177.815 34.0956 174.97 34.6537 175.138 34.8211C175.918 35.5979 189.597 33.4726 190.665 32.4091C191.91 31.1692 191.083 30.9309 189.227 31.9943ZM194.16 34.4267C195.156 38.3779 191.688 42.8044 185.63 45.3151C181.867 46.8741 181.268 48.1562 184.873 46.9367C188.41 45.739 193.442 42.0011 194.434 39.832C195.502 37.497 195.537 33.7622 194.497 33.1219C193.994 32.8126 193.872 33.2848 194.16 34.4267ZM121.063 36.7232C121.069 37.4495 120.734 38.0431 120.317 38.0431C119.901 38.0431 119.565 36.9397 119.571 35.5919C119.581 33.732 119.76 33.4137 120.317 34.272C120.721 34.8943 121.056 35.9969 121.063 36.7232ZM203.93 43.4613C201.873 47.4488 195.678 52.4363 189.685 54.9313C184.354 57.1494 184.978 56.1033 190.541 53.4945C197.612 50.179 202.518 45.383 203.801 40.5289C204.586 37.5558 204.791 37.2828 204.985 38.9474C205.114 40.0545 204.639 42.0856 203.93 43.4613ZM166.793 42.1263C164.659 42.6422 160.57 43.1453 157.706 43.2448C154.843 43.3444 152.254 43.6649 151.953 43.9568C151.153 44.7329 161.619 44.2012 166.721 43.2064C169.128 42.7365 171.278 42.0622 171.498 41.7062C171.988 40.9174 171.682 40.9445 166.793 42.1263ZM177.616 41.563C177.338 41.839 177.111 44.2147 177.111 46.8424C177.111 51.4823 177.167 51.6188 179.078 51.6188C181.045 51.6188 181.045 51.6158 180.506 46.905C180.21 44.3128 179.816 41.9363 179.63 41.6255C179.213 40.9249 178.285 40.8962 177.616 41.563ZM134.705 42.4318C134.705 42.8278 136.27 43.3851 138.182 43.6702C142.228 44.2751 143.581 43.7064 139.871 42.9613C138.487 42.6829 136.759 42.2885 136.03 42.0841C135.301 41.8797 134.705 42.0358 134.705 42.4318ZM144.739 43.8422C145.468 44.0322 146.66 44.0322 147.389 43.8422C148.118 43.6529 147.521 43.4975 146.064 43.4975C144.606 43.4975 144.009 43.6529 144.739 43.8422ZM179.647 48.9549C179.882 49.5636 179.748 50.2627 179.349 50.5078C178.951 50.753 178.625 50.2544 178.625 49.4007C178.625 47.5792 179.046 47.396 179.647 48.9549ZM200.213 50.8548C199.242 52.419 193.177 56.0045 188.091 58.0205C179.906 61.2651 173.733 62.8293 164.243 64.0639C159.45 64.6869 154.252 65.3702 152.69 65.5814C151.128 65.7933 149.85 65.65 149.85 65.2631C149.85 64.877 152.15 64.3339 154.961 64.0571C162.171 63.3482 176.626 60.8208 179.152 59.8291C181.075 59.0734 181.136 58.9429 179.8 58.4496C178.522 57.9775 178.663 57.7867 180.859 57.0242C184.297 55.831 185.48 55.9592 183.169 57.2753C181.364 58.3026 181.352 58.3546 182.909 58.3802C184.915 58.4127 193.473 54.6492 197.335 52.0359C200.454 49.9241 200.905 49.7393 200.213 50.8548ZM123.483 56.7353C130.756 60.139 136.466 60.977 152.627 61.0124C161.025 61.0313 167.832 61.112 167.75 61.1927C167.613 61.3307 157.693 62.6423 150.986 63.4093C149.32 63.6001 145.953 64.0677 143.504 64.4493C140.696 64.886 138.547 64.8732 137.685 64.4139C136.934 64.0134 135.188 63.6861 133.806 63.6861C130.748 63.6861 121.356 61.0863 119.817 59.814C118.575 58.7883 117.02 55.9675 116.149 53.1657L115.576 51.3194L117.895 53.2622C119.169 54.3309 121.685 55.8936 123.483 56.7353ZM196.193 58.9723C197.948 60.8405 200.585 65.2337 200.585 66.2881C200.585 66.5166 199.565 66.7029 198.32 66.7029C196.717 66.7029 195.442 66.0015 193.966 64.3068C192.817 62.9884 191.288 61.299 190.568 60.5516C189.322 59.2581 189.358 59.1382 191.325 58.0755C194.05 56.6026 193.949 56.5845 196.193 58.9723ZM174.46 59.915C173.211 60.2318 171.337 60.5071 170.296 60.5267C168.578 60.5599 168.543 60.5033 169.917 59.915C170.75 59.5583 172.624 59.283 174.082 59.3034L176.732 59.3396L174.46 59.915ZM191.161 63.0759C193.796 65.9811 193.916 66.3017 192.653 67.0355C191.897 67.4752 189.549 68.964 187.437 70.3457L183.594 72.8565L178.27 71.8368L172.946 70.8171V67.5167V64.2163L179.383 62.1188C182.923 60.9657 186.376 59.9973 187.056 59.9686C187.736 59.9392 189.583 61.3375 191.161 63.0759ZM125.413 64.1416C125.161 64.392 124.508 64.4192 123.962 64.2012C123.358 63.9606 123.537 63.7819 124.419 63.7457C125.218 63.7132 125.664 63.8912 125.413 64.1416ZM139.627 66.7663C135.834 67.3221 131.166 66.9525 130.602 66.052C130.436 65.7873 133.251 65.7157 136.857 65.8914C143.119 66.1968 143.244 66.236 139.627 66.7663ZM147.373 65.65C147.122 65.9004 146.468 65.9276 145.922 65.7096C145.318 65.469 145.497 65.2903 146.379 65.2541C147.178 65.2216 147.624 65.3996 147.373 65.65ZM166.188 65.8559C165.361 67.1901 158.833 68.2091 151.597 68.1344C146.199 68.0778 144.862 67.8938 146.701 67.4609C148.092 67.1336 150.647 66.9827 152.38 67.1268C154.112 67.2708 157.574 66.9292 160.073 66.3688C165.714 65.1025 166.707 65.0195 166.188 65.8559ZM170.358 66.5868C168.831 69.4278 158.972 71.9182 150.874 71.5087C145.753 71.25 139.436 69.8766 138.823 68.8901C138.269 67.9971 139.871 68.0326 147.377 69.0771C154.593 70.0817 162.564 69.1299 167.15 66.7172C170.653 64.8739 171.292 64.8483 170.358 66.5868ZM200.671 68.6329C201.926 69.2793 202.821 70.2122 202.659 70.707C202.496 71.201 199.699 73.9041 196.442 76.7142C187.698 84.2578 177.4 88.685 162.723 91.2101C155.71 92.4168 154.227 92.8112 147.957 95.1395C144.485 96.4292 134.766 99.0893 133.431 99.1157C132.938 99.1255 132.339 98.5153 132.098 97.7596C131.856 97.0039 130.225 95.5822 128.471 94.601L125.283 92.8158L127.912 91.729C132.088 90.0018 139.883 89.6971 143.319 91.1264C146.84 92.5918 149.576 92.7999 147.2 91.4212C142.556 88.728 131.421 88.5945 126.238 91.1701C124.094 92.235 123.714 92.1717 119.491 90.0486C117.03 88.8117 115.017 87.4979 115.017 87.1306C115.017 86.7625 116.268 86.1674 117.798 85.8069C119.328 85.4464 120.698 84.8001 120.841 84.3702C121.155 83.4319 115.773 80.2914 113.778 80.2484C112.735 80.2258 112.961 79.9 114.638 79.0025C115.887 78.3335 118.273 76.6871 119.939 75.3431C123.101 72.7931 128.883 70.4739 132.081 70.4739C133.65 70.4739 133.948 70.8344 133.948 72.7365C133.948 74.1454 133.558 74.9992 132.914 74.9992C132.345 74.9992 130.982 75.7028 129.885 76.5626C127.376 78.5281 127.25 81.6799 129.594 83.8724C135.956 89.8238 162.27 87.0808 178.65 78.7574C180.273 77.933 183.64 75.4464 186.131 73.2321C192.276 67.7709 196.44 66.454 200.671 68.6329ZM169.195 70.7243C161.418 76.4186 141.855 76.2587 136.584 70.4581C135.275 69.0176 135.926 68.3184 137.393 69.5885C139.412 71.3375 145.481 72.3564 153.636 72.3172C161.326 72.2803 162.831 72.051 166.509 70.3517C171.264 68.1555 172.473 68.3229 169.195 70.7243ZM139.054 73.4779C143.509 75.7911 148.916 76.5114 156.788 75.8416C161.588 75.4336 164.883 74.7171 167.047 73.6114C168.801 72.7154 170.461 71.9823 170.737 71.9823C171.885 71.9823 169.04 74.4705 166.181 75.9676C163.609 77.3138 161.565 77.6147 153.769 77.7943C145.618 77.982 143.96 77.8056 140.677 76.3982C138.609 75.5128 136.577 74.1567 136.163 73.3852C135.216 71.6241 135.499 71.6331 139.054 73.4779ZM180.753 73.5978C181.716 73.9523 182.29 74.5844 182.031 75.0029C181.147 76.4269 177.017 78.1072 174.978 77.8727C173.237 77.6721 172.913 77.2429 172.715 74.877L172.484 72.1151L175.744 72.5344C177.537 72.7645 179.791 73.2434 180.753 73.5978ZM200.877 76.6961C193.453 91.1173 180.806 99.7311 159.09 105.157C155.634 106.02 151.106 107.394 149.028 108.21C146.95 109.025 144.941 109.693 144.564 109.693C144.187 109.693 143.775 108.253 143.646 106.494C143.395 103.044 142.35 102.344 138.784 103.236C135.301 104.107 134.689 111.201 138.097 111.201C139.855 111.201 139.468 112.476 137.558 112.974C135.189 113.591 134.828 112.976 134.31 107.423C134.058 104.731 133.68 101.934 133.47 101.208C133.203 100.285 133.515 99.888 134.51 99.888C136.971 99.888 148.594 96.7475 151.439 95.3137C153.824 94.1115 165.657 91.5412 169.917 91.3006C170.75 91.2531 171.602 91.0359 171.81 90.8171C172.018 90.5984 174.233 89.799 176.732 89.0402C183.31 87.0446 190.622 83.0352 196.143 78.3961C198.795 76.1689 201.228 74.3234 201.552 74.2955C201.874 74.2676 201.571 75.3484 200.877 76.6961ZM171.053 75.7217C171.053 77.439 164.403 80.2198 158.18 81.1052C152.709 81.8828 150.862 81.8406 145.869 80.8201C140.309 79.6835 134.125 76.5747 136.114 75.914C136.616 75.7473 137.442 75.9412 137.949 76.3454C139.723 77.7596 147.473 79.5244 151.91 79.5244C157.802 79.5244 164.69 78.2174 168.006 76.4714C171.203 74.7872 171.053 74.8242 171.053 75.7217ZM133.948 78.7438C133.948 81.0404 133.567 81.9371 132.304 82.6099C130.942 83.3362 130.488 83.2517 129.653 82.1151C128.256 80.2107 128.365 79.7122 130.651 77.6027C133.392 75.0723 133.948 75.2646 133.948 78.7438ZM169.321 80.5848C162.135 86.3055 141.086 85.859 136.22 79.8827C135.175 78.599 135.204 78.5371 136.598 79.1028C145.433 82.689 145.519 82.7049 154.015 82.3851C160.913 82.1249 163.061 81.741 166.509 80.1534C171.268 77.9632 172.398 78.1367 169.321 80.5848ZM116.177 82.1257C119.005 83.303 119.518 84.3694 117.605 85.1003C115.301 85.9812 112.141 85.546 110.368 84.1039L108.58 82.6491L110.473 81.8888C113.02 80.8661 113.164 80.8714 116.177 82.1257ZM139.564 83.6009C141.448 84.5979 142.573 85.5716 142.065 85.7639C140.72 86.2738 138.325 85.2171 136.67 83.3844C134.816 81.3322 135.356 81.3722 139.564 83.6009ZM108.432 85.4525C110.596 86.6396 116.217 89.5621 120.923 91.9469C125.668 94.3521 130.007 97.0861 130.664 98.0847C131.764 99.7567 131.738 99.9785 130.3 101.206C125.746 105.096 124.275 109.46 125.347 115.915C126.143 120.712 127.069 119.037 126.613 113.622C126.201 108.723 126.291 108.347 128.696 104.949C130.079 102.995 131.447 101.396 131.734 101.396C132.023 101.396 132.476 103.348 132.742 105.733C133.007 108.118 133.413 111.639 133.643 113.557L134.064 117.045L130.787 118.557C128.986 119.389 126.921 120.267 126.199 120.509C125.353 120.792 125.057 121.39 125.365 122.191C125.803 123.327 125.902 123.33 126.526 122.219C127.228 120.97 130.162 120.505 130.162 121.643C130.162 122.78 127.302 124.896 124.343 125.947C120.71 127.237 114.4 127.309 112.225 126.085C109.474 124.536 102.667 119.705 100.25 117.586L97.9786 115.594L100.629 117.153C107.398 121.135 107.862 121.105 107.565 116.712C107.404 114.327 107.529 114.103 108.548 114.946C109.523 115.752 109.716 115.698 109.716 114.617C109.716 113.905 109.034 113.145 108.201 112.928C107.368 112.711 106.687 111.936 106.687 111.206C106.687 109.902 105.542 108.64 102.948 107.082C102.231 106.652 100.537 105.574 99.1842 104.688C97.8317 103.802 96.1105 103.237 95.3586 103.433C93.3185 103.964 91.542 100.887 91.542 96.8251C91.542 92.9183 93.3988 89.9898 98.5655 85.7466C102.221 82.7441 103.426 82.7087 108.432 85.4525ZM199.43 85.5203C203.346 93.0632 195.485 105.326 182.516 111.905C176.815 114.797 170.708 116.353 161.452 117.272C151.392 118.27 136.176 117.502 135.667 115.97C135.505 115.482 136.854 114.429 138.665 113.632C141.399 112.427 143.775 112.178 152.669 112.161C167.651 112.134 175.578 110.11 185.218 103.853C189.631 100.988 193.663 95.2436 194.306 90.9061C194.625 88.7506 197.336 83.3241 198.105 83.3007C198.199 83.2977 198.795 84.297 199.43 85.5203ZM193.013 91.8248C193.013 92.7826 192.583 94.1515 192.057 94.8672C191.22 96.0083 190.921 96.0377 189.638 95.1025C188.219 94.0693 188.242 93.975 190.403 92.0834C193.133 89.6941 193.013 89.7062 193.013 91.8248ZM188.893 96.4503C190.343 97.5235 190.341 97.5597 188.785 99.1315C187.384 100.548 186.963 100.62 184.999 99.7764C181.86 98.4293 181.859 98.4263 183.937 96.8364C186.212 95.0957 186.981 95.0362 188.893 96.4503ZM182.907 100.265C186.344 101.695 185.682 102.657 178.896 106.09C173.526 108.807 172.56 108.507 173.178 104.315C173.451 102.46 174.151 101.704 176.641 100.578C180.411 98.8728 179.653 98.9113 182.907 100.265ZM198.793 104.838C200.611 107.602 200.231 113.477 197.943 117.974C196.867 120.089 193.872 123.619 190.8 126.392C186.09 130.644 184.989 131.267 180.743 132.084C178.121 132.59 171.204 133.178 165.373 133.392L154.772 133.781L160.97 132.753C167.801 131.618 170.065 130.961 167.456 130.87C165.835 130.813 165.752 130.514 165.752 124.758C165.752 118.852 165.803 118.687 167.835 117.906C172.141 116.253 177.292 116.251 181.989 117.903C187.718 119.917 188.357 120.555 186.593 122.495C184.894 124.366 177.814 127.952 173.059 129.35C168.982 130.549 168.279 131.688 172.154 130.818C185.634 127.79 198.3 114.45 194.467 107.318C193.826 106.124 193.933 105.484 194.963 104.351C196.69 102.45 197.271 102.524 198.793 104.838ZM94.4491 106.334C94.933 107.391 95.3283 109.1 95.3283 110.132C95.3283 111.164 95.9091 112.891 96.6186 113.97C97.8984 115.916 97.8961 115.923 96.2582 114.904C95.1268 114.201 94.337 112.568 93.7479 109.711C93.2754 107.419 92.7355 105.29 92.5492 104.979C92.3629 104.668 92.5159 104.413 92.8899 104.413C93.2648 104.413 93.966 105.278 94.4491 106.334ZM100.456 106.864C102.385 108.212 104.28 109.533 104.668 109.799C105.407 110.306 106.871 118.057 106.33 118.596C106.157 118.768 104.446 117.853 102.527 116.563C100.609 115.273 98.7351 114.218 98.3641 114.218C97.993 114.218 97.5326 113.963 97.3418 113.652C96.711 112.626 95.9 104.413 96.4301 104.413C96.7148 104.413 98.5269 105.517 100.456 106.864ZM171.053 105.136C171.053 107.984 156.627 111.812 150.611 110.56C146.931 109.794 148.424 109.219 155.671 108.61C161.015 108.161 168.844 106.11 170.139 104.82C170.745 104.217 171.053 104.323 171.053 105.136ZM165.547 105.623C165.295 105.873 164.642 105.9 164.096 105.683C163.492 105.442 163.671 105.263 164.553 105.227C165.352 105.195 165.798 105.373 165.547 105.623ZM140.763 107.008C140.763 107.192 140.422 107.551 140.006 107.807C139.589 108.064 139.249 107.913 139.249 107.475C139.249 107.036 139.589 106.676 140.006 106.676C140.422 106.676 140.763 106.825 140.763 107.008ZM138.345 109.335C138.112 109.567 137.689 109.149 137.404 108.405C136.993 107.33 137.08 107.244 137.828 107.983C138.346 108.495 138.578 109.104 138.345 109.335ZM170.705 108.888C170.431 109.331 169.844 109.693 169.401 109.693C168.898 109.693 168.956 109.26 169.553 108.543C170.592 107.297 171.52 107.575 170.705 108.888ZM193.627 110.7C193.922 114.183 192.417 114.934 188.685 113.161C185.768 111.775 185.761 111.81 189.38 109.264C192.573 107.02 193.337 107.278 193.627 110.7ZM187.995 114.253C191.77 115.916 191.999 116.272 190.552 118.221C189.676 119.402 189.187 119.334 183.956 117.302L178.305 115.106L180.927 113.97C184.337 112.49 183.958 112.475 187.995 114.253ZM135.87 118.791C136.144 119.232 135.823 120.192 135.158 120.924C133.626 122.61 133.596 125.81 135.102 127.054C137.401 128.954 135.437 128.707 132.895 126.776C130.41 124.888 130.328 124.679 131.17 122.335C132.429 118.833 134.791 117.051 135.87 118.791ZM142.623 119.686C143.265 121.718 143.53 128.503 143.001 129.357C142.591 130.018 141.557 129.775 139.141 128.451C135.225 126.305 134.546 123.878 136.996 120.776C138.678 118.647 142.086 117.986 142.623 119.686ZM155.151 119.497C155.993 120.04 155.544 120.231 153.402 120.24C151.67 120.247 150.705 119.951 150.986 119.497C151.577 118.544 153.669 118.544 155.151 119.497ZM202.733 120.529C202.901 121.409 202.689 121.746 202.167 121.424C201.708 121.141 200.398 121.555 199.255 122.343C194.586 125.563 194.497 125.469 197.762 120.776C199.434 118.371 202.292 118.23 202.733 120.529ZM157.796 121.062C164.571 119.887 164.238 119.68 164.238 125.062C164.238 131.656 163.842 131.898 153.987 131.342C149.625 131.096 145.717 130.686 145.303 130.431C144.534 129.958 144.224 121.582 144.948 120.861C145.166 120.643 147.095 120.781 149.234 121.169C151.788 121.631 154.727 121.594 157.796 121.062ZM100.78 126.618C100.654 127.751 100.952 129.157 101.44 129.744C102.833 131.415 108.701 131.096 111.367 129.205C113.479 127.708 113.716 127.683 114.892 128.854C115.806 129.764 116.179 131.569 116.25 135.422C116.304 138.343 116.739 141.124 117.217 141.6C118.423 142.801 123.528 142.685 125.935 141.402C128.337 140.122 129.019 137.917 127.91 135.013C126.808 132.123 127.497 131.688 129.786 133.83C132.241 136.128 132.18 138.356 129.594 140.76C126.812 143.345 122.46 144.638 117.983 144.21C113.133 143.746 111.988 142.69 111.988 138.68C111.988 134.768 110.051 133.008 105.95 133.194C103.423 133.308 103.402 133.33 105.551 133.609C106.801 133.77 108.574 134.479 109.491 135.185C110.903 136.27 111.092 136.959 110.717 139.672C110.473 141.436 109.952 142.878 109.558 142.878C108.878 142.878 102.168 137.935 98.5466 134.765C96.4566 132.935 96.3248 131.99 98.3073 133.047C99.113 133.476 100.391 133.81 101.147 133.788C101.905 133.767 101.247 133.222 99.6824 132.577C97.2751 131.582 96.8428 131.052 96.8428 129.092C96.8428 126.646 98.829 123.791 100.195 124.272C100.642 124.429 100.905 125.485 100.78 126.618ZM199.071 124.696C199.071 125.066 198.511 125.583 197.828 125.845C196.789 126.242 196.742 126.131 197.542 125.171C198.632 123.863 199.071 123.726 199.071 124.696ZM204.813 126.731C206.002 133.041 203.215 140.898 197.691 146.806C194.24 150.498 186.06 155.276 177.489 158.606C174.198 159.885 162.851 161.561 159.316 161.29C149.026 160.504 140.763 158.658 140.763 157.147C140.763 156.15 142.861 156.303 147.2 157.614C155.111 160.004 167.557 159.751 175.218 157.043C194.259 150.312 202.857 141.652 202.857 129.206C202.857 123.669 203.971 122.26 204.813 126.731ZM132.346 128.113C137.967 131.88 143.333 133.619 151.235 134.235C155.083 134.535 158.085 134.927 157.905 135.107C157.724 135.287 155.507 135.915 152.977 136.502C150.447 137.09 146.749 138.315 144.759 139.224C140.518 141.161 140.387 141.247 140.908 141.765C141.127 141.983 142.973 141.436 145.01 140.55C149.199 138.728 159.135 136.112 161.917 136.099C162.931 136.094 164.55 136.827 165.514 137.73C166.91 139.036 167.267 139.129 167.267 138.187C167.267 137.537 166.755 136.81 166.131 136.571C163.698 135.642 165.198 134.704 169.507 134.46C174.361 134.185 174.342 134.161 172.947 138.813C172.809 139.274 170.537 139.877 167.899 140.153C162.489 140.718 156.976 141.83 152.5 143.259C147.191 144.953 143.691 144.308 138.501 140.683C135.935 138.89 133.462 136.606 133.004 135.606C132.547 134.608 131.038 133.092 129.652 132.238C127.163 130.706 125.764 127.88 126.727 126.328C127.487 125.104 128.191 125.327 132.346 128.113ZM194.194 127.441C193.385 128.049 192.362 128.536 191.922 128.521C191.48 128.506 191.972 128.009 193.013 127.416C195.466 126.02 196.063 126.032 194.194 127.441ZM197.17 129.31C195.44 131.109 194.379 131.557 191.925 131.528L188.848 131.491L193.77 128.963C196.477 127.573 198.838 126.575 199.016 126.745C199.194 126.916 198.363 128.07 197.17 129.31ZM201.764 131.777C201.487 133.861 200.648 136.756 199.899 138.209L198.537 140.852L198.009 137.151C197.216 131.6 197.329 130.771 199.141 128.85C201.494 126.356 202.358 127.32 201.764 131.777ZM145.859 132.02C145.607 132.271 144.954 132.298 144.408 132.08C143.803 131.839 143.983 131.66 144.865 131.624C145.663 131.592 146.11 131.77 145.859 132.02ZM187.254 132.901C186.377 133.618 185.449 134.803 185.191 135.536C184.641 137.098 182.463 138.026 177.665 138.742C174.816 139.169 174.223 139.058 174.36 138.128C174.607 136.45 176.366 134.59 177.771 134.521C178.45 134.488 180.708 133.851 182.79 133.107C187.865 131.292 189.303 131.226 187.254 132.901ZM150.054 132.814C149.541 133.02 148.519 133.033 147.782 132.841C147.045 132.65 147.465 132.481 148.714 132.466C149.964 132.451 150.566 132.607 150.054 132.814ZM194.062 133.171C195.095 133.639 196.354 135.019 196.86 136.235C198.177 139.402 195.894 142.405 191.917 142.739C188.366 143.038 186.57 141.534 186.335 138.069C186.198 136.039 186.598 135.132 188.174 133.897C190.475 132.094 191.43 131.976 194.062 133.171ZM105.368 142.428C110.828 146.719 112.132 148.155 112.791 150.592C113.231 152.218 113.483 153.871 113.351 154.265C113.094 155.033 100.756 145.591 99.4931 143.659C98.642 142.357 97.6318 136.695 98.308 137.015C98.5473 137.128 101.725 139.564 105.368 142.428ZM185.093 139.157C185.368 139.599 185.415 140.138 185.197 140.354C184.563 140.986 179.601 141.983 170.674 143.273C164.937 144.102 160.887 145.167 157.659 146.694C152.315 149.224 150.895 149.367 147.041 147.763C143.064 146.108 144.709 144.785 149.242 145.993C152.3 146.807 152.896 146.746 154.854 145.42C158.442 142.989 160.553 142.337 168.065 141.346C171.999 140.827 177.092 139.979 179.383 139.461C181.673 138.943 183.783 138.482 184.071 138.436C184.358 138.39 184.819 138.715 185.093 139.157ZM136.755 141.656C136.63 142.028 135.042 142.911 133.225 143.618C131.409 144.326 130.294 145.133 130.748 145.412C131.201 145.691 132.757 145.357 134.205 144.669C138.049 142.843 138.884 143.54 139.857 149.388C140.574 153.7 140.531 154.809 139.585 156.247C138.964 157.19 138.038 157.963 137.527 157.966C137.016 157.968 135.621 158.748 134.428 159.7L132.257 161.429L133.539 169.568C134.243 174.045 134.641 177.887 134.421 178.106C133.995 178.531 133.55 176.769 132.86 171.915C129.952 151.478 128.768 144.768 128.178 145.357C127.788 145.744 130.076 162.868 131.955 173.633C133.044 179.87 132.896 180.155 128.175 180.93C124.063 181.605 120.043 179.936 118.467 176.898C117.81 175.634 116.563 174.22 115.694 173.758C114.695 173.225 114.249 172.413 114.477 171.542C114.676 170.786 114.589 168.807 114.284 167.144C113.748 164.229 113.799 164.124 115.697 164.246C117.509 164.363 117.66 164.143 117.578 161.512C117.528 159.923 116.97 158.246 116.321 157.741C115.641 157.211 114.976 155.094 114.73 152.682L114.308 148.534L115.394 152.305L116.48 156.076L116.151 152.022C115.971 149.791 115.276 147.136 114.608 146.121C113.42 144.315 113.43 144.295 115.073 145.171C117.527 146.478 123.511 145.661 127.834 143.427C130.367 142.118 131.448 141.838 131.169 142.561C130.942 143.15 131.101 143.632 131.521 143.632C131.941 143.632 132.645 142.602 133.086 141.344C133.81 139.275 134.035 139.148 135.434 140.019C136.285 140.547 136.879 141.285 136.755 141.656ZM186.576 143.606C186.576 145.955 167.258 153.545 164.806 152.16C163.864 151.628 164.168 148.133 165.184 147.798C165.705 147.627 167.333 147.346 168.804 147.173C170.274 147.001 172.63 146.265 174.041 145.539C180.175 142.379 186.576 141.392 186.576 143.606ZM154.015 144.386C153.757 144.801 153.141 145.135 152.645 145.129C152.103 145.121 152.197 144.825 152.879 144.386C154.334 143.449 154.596 143.449 154.015 144.386ZM192.965 146.641C188.777 150.22 177.966 155.363 171.589 156.812C161.361 159.136 141.52 157.067 141.52 153.676C141.52 152.853 141.901 152.691 142.845 153.113C143.575 153.439 145.193 153.651 146.442 153.584C147.692 153.517 152.338 153.478 156.767 153.498C161.197 153.518 166.973 153.145 169.602 152.671C174.552 151.777 182.39 148.595 186.07 145.985C187.838 144.732 194.111 143.519 195.237 144.213C195.419 144.326 194.397 145.418 192.965 146.641ZM142.286 145.329C142.29 145.848 142.518 147.629 142.79 149.288C143.231 151.966 143.153 152.196 142.102 151.334C140.588 150.092 139.938 144.386 141.311 144.386C141.843 144.386 142.281 144.811 142.286 145.329ZM107.61 151.884C111.584 155.086 112.274 156.014 112.516 158.483L112.799 161.356L110.094 157.385C108.606 155.201 106.213 152.656 104.776 151.728C103.338 150.801 102.158 149.619 102.153 149.1C102.138 147.631 102.668 147.901 107.61 151.884ZM146.707 148.985C149.364 149.908 149.301 151.264 146.631 150.623C145.465 150.344 145.166 150.461 145.685 150.998C146.102 151.429 147.124 151.945 147.957 152.145C148.937 152.379 148.604 152.538 147.01 152.595C145.35 152.654 144.549 152.335 144.549 151.613C144.549 151.025 144.343 150.006 144.09 149.35C143.543 147.932 143.637 147.919 146.707 148.985ZM163.341 150.231C163.134 152.02 162.722 152.337 160.338 152.535C158.817 152.661 156.432 152.463 155.037 152.093L152.5 151.423L155.151 149.793C156.65 148.871 159.056 148.162 160.691 148.16C163.398 148.157 163.566 148.289 163.341 150.231ZM108.285 156.952C111.045 160.635 113.502 166.637 113.502 169.694C113.502 171.164 111.527 173.73 110.984 172.965C110.868 172.802 110.193 170.768 109.484 168.444C107.956 163.437 102.948 155.427 100.544 154.146C98.9259 153.283 98.9093 153.188 100.214 152.238C102.174 150.811 104.86 152.38 108.285 156.952ZM101.25 156.332C102.574 157.51 103.658 158.893 103.658 159.407C103.658 159.921 102.776 159.296 101.697 158.02C100.619 156.744 99.0857 155.699 98.2899 155.699C97.494 155.699 96.8428 155.36 96.8428 154.945C96.8428 153.551 98.823 154.174 101.25 156.332ZM100.418 159.659C103.208 162.681 105.166 166.577 105.169 169.113C105.172 171.344 105.024 171.512 103.681 170.796C101.704 169.742 98.5988 164.321 97.9506 160.79C97.3554 157.547 98.1361 157.189 100.418 159.659ZM143.573 160.356C145 161.536 144.579 177.615 143.028 181.14C142.115 183.216 142.109 184.11 142.987 187.174C143.553 189.151 144.171 191.958 144.359 193.41L144.701 196.049L142.732 193.452C141.649 192.023 140.763 190.611 140.763 190.314C140.763 188.799 136.537 183.605 135.304 183.605C132.611 183.605 132.892 181.381 135.914 178.779C139.194 175.956 139.417 174.519 138.205 164.072L137.558 158.492L140.035 158.986C141.397 159.257 142.989 159.874 143.573 160.356ZM136.463 161.279C137.23 163.267 137.921 172.956 137.434 174.886C136.755 177.584 135.462 177.3 135.462 174.453C135.462 173.152 135.07 169.967 134.591 167.375C133.729 162.718 133.996 160.224 135.358 160.224C135.742 160.224 136.24 160.699 136.463 161.279ZM107.093 164.938C109.006 169.031 109.526 173.362 108.201 174.177C107.743 174.46 107.437 173.364 107.428 171.393C107.418 169.606 106.737 166.664 105.913 164.856C104.293 161.299 104.203 160.979 104.829 160.979C105.056 160.979 106.075 162.761 107.093 164.938ZM156.605 162.394C160.587 162.688 163.096 163.21 163.287 163.786C163.455 164.293 162.124 166.057 160.329 167.708L157.066 170.709L160.273 171.219L163.48 171.731L163.47 177.102C163.456 184.212 163.009 185.568 160.086 187.368C155.872 189.962 149.085 189.037 146.643 185.534C146.337 185.095 146.082 179.354 146.075 172.776L146.064 160.815L148.146 161.369C149.291 161.673 153.098 162.134 156.605 162.394ZM166.456 184.126C166.485 185.45 166.169 186.742 165.752 186.999C165.336 187.255 164.995 188.361 164.995 189.457C164.995 191.006 164.793 191.247 164.086 190.544C162.81 189.273 161.108 189.411 157.129 191.111C155.232 191.92 153.504 192.297 153.287 191.949C153.071 191.599 151.953 191.081 150.803 190.795C145.692 189.524 141.812 184.14 143.65 180.867C144.23 179.835 144.48 180.211 144.913 182.762C145.795 187.964 150.443 190.803 156.506 189.844C161.633 189.033 164.929 185.548 165.048 180.814C165.095 178.954 165.179 178.883 165.752 180.211C166.11 181.041 166.427 182.802 166.456 184.126ZM123.215 181.999C124.768 182.98 125.251 188.377 123.886 189.505C122.936 190.29 122.619 190.055 121.914 188.042C120.956 185.306 120.795 181.336 121.643 181.354C121.955 181.36 122.663 181.651 123.215 181.999ZM198.729 188.019C198.693 190.88 198.666 190.907 197.012 189.716C194.975 188.25 194.837 186.957 196.61 185.928C198.63 184.756 198.769 184.893 198.729 188.019ZM168.624 190.026C169.744 194.195 169.761 194.918 168.742 194.918C167.555 194.918 165.768 190.118 166.259 188.249C166.913 185.757 167.62 186.288 168.624 190.026ZM153.531 194.439C154.315 195.739 155.186 197.77 155.465 198.951C156.233 202.192 154.354 201.161 152.344 197.239C151.426 195.446 150.135 193.386 149.477 192.662C148.366 191.439 148.416 191.372 150.194 191.71C151.283 191.917 152.718 193.091 153.531 194.439ZM161.452 195.882C161.211 198.048 160.802 200.051 160.543 200.332C159.707 201.243 156.665 198.125 156.219 195.901C155.841 194.016 156.106 193.588 158.308 192.535C159.695 191.871 161.069 191.467 161.36 191.636C161.651 191.805 161.693 193.716 161.452 195.882ZM149.006 193.848C149.852 194.92 150.768 196.532 151.042 197.431C151.315 198.331 152.216 199.804 153.046 200.707C154.957 202.789 154.228 203.998 151.209 203.754C148.05 203.499 145.949 200.553 145.483 195.728C145.182 192.612 145.332 191.901 146.291 191.901C146.938 191.901 148.161 192.778 149.006 193.848ZM164.445 197.227C163.701 200.06 162.723 199.516 162.747 196.282C162.769 193.377 162.881 193.176 163.803 194.387C164.37 195.133 164.659 196.411 164.445 197.227ZM172.624 198.142C172.53 199.044 171.492 198.869 171.166 197.897C171 197.399 171.272 197.128 171.772 197.294C172.272 197.46 172.655 197.841 172.624 198.142ZM242.234 204.056C239.11 205.647 236.895 206.959 237.312 206.969C238.637 207.003 249.049 202.213 249.049 201.569C249.049 200.664 248.482 200.871 242.234 204.056ZM224.06 205.892L222.167 207.008L224.38 206.808C225.597 206.698 226.733 206.184 226.904 205.665C227.309 204.438 226.404 204.51 224.06 205.892Z" fill="#9FA2A4"/>
</g>
<defs>
<clipPath id="clip0_396_955">
<rect width="250" height="169" fill="white" transform="matrix(-1 0 0 1 250 0)"/>
</clipPath>
</defs>
</svg>
