<svg width="102" height="33" viewBox="0 0 102 33" fill="none" xmlns="http://www.w3.org/2000/svg">
<path d="M1.72 6.66H11.52V20H10.04V8.06H3.2V20H1.72V6.66ZM20.7622 17.22L21.9622 17.88C21.6822 18.4133 21.3422 18.86 20.9422 19.22C20.1822 19.9 19.2622 20.24 18.1822 20.24C17.0622 20.24 16.0955 19.88 15.2822 19.16C14.4822 18.4267 14.0822 17.34 14.0822 15.9C14.0822 14.6333 14.4422 13.5867 15.1622 12.76C15.8955 11.92 16.8755 11.5 18.1022 11.5C19.4889 11.5 20.5355 12.0067 21.2422 13.02C21.8022 13.82 22.0622 14.86 22.0222 16.14H15.5622C15.5755 16.98 15.8355 17.66 16.3422 18.18C16.8489 18.7 17.4689 18.96 18.2022 18.96C18.8555 18.96 19.4222 18.76 19.9022 18.36C20.2755 18.04 20.5622 17.66 20.7622 17.22ZM15.6622 14.94H20.5422C20.4222 14.2867 20.1355 13.7667 19.6822 13.38C19.2422 12.98 18.7155 12.78 18.1022 12.78C17.5022 12.78 16.9689 12.9867 16.5022 13.4C16.0489 13.8 15.7689 14.3133 15.6622 14.94ZM25.6711 18.84V24.6H24.2311V11.7H25.6711V12.86C26.4044 11.9533 27.3511 11.5 28.5111 11.5C29.7511 11.5 30.7311 11.94 31.4511 12.82C32.1844 13.6867 32.5511 14.7133 32.5511 15.9C32.5511 17.1 32.1911 18.1267 31.4711 18.98C30.7511 19.82 29.7844 20.24 28.5711 20.24C27.3578 20.24 26.3911 19.7733 25.6711 18.84ZM28.3711 18.96C29.1844 18.96 29.8378 18.6667 30.3311 18.08C30.8244 17.48 31.0711 16.7533 31.0711 15.9C31.0711 14.94 30.7978 14.18 30.2511 13.62C29.7044 13.06 29.0711 12.78 28.3511 12.78C27.6311 12.78 26.9911 13.06 26.4311 13.62C25.8711 14.18 25.5911 14.9333 25.5911 15.88C25.5911 16.7467 25.8444 17.48 26.3511 18.08C26.8711 18.6667 27.5444 18.96 28.3711 18.96ZM40.9184 17.22L42.1184 17.88C41.8384 18.4133 41.4984 18.86 41.0984 19.22C40.3384 19.9 39.4184 20.24 38.3384 20.24C37.2184 20.24 36.2518 19.88 35.4384 19.16C34.6384 18.4267 34.2384 17.34 34.2384 15.9C34.2384 14.6333 34.5984 13.5867 35.3184 12.76C36.0518 11.92 37.0318 11.5 38.2584 11.5C39.6451 11.5 40.6918 12.0067 41.3984 13.02C41.9584 13.82 42.2184 14.86 42.1784 16.14H35.7184C35.7318 16.98 35.9918 17.66 36.4984 18.18C37.0051 18.7 37.6251 18.96 38.3584 18.96C39.0118 18.96 39.5784 18.76 40.0584 18.36C40.4318 18.04 40.7184 17.66 40.9184 17.22ZM35.8184 14.94H40.6984C40.5784 14.2867 40.2918 13.7667 39.8384 13.38C39.3984 12.98 38.8718 12.78 38.2584 12.78C37.6584 12.78 37.1251 12.9867 36.6584 13.4C36.2051 13.8 35.9251 14.3133 35.8184 14.94ZM44.3873 11.7H45.8273V17.18L51.5073 11.06V20H50.0673V14.46L44.3873 20.58V11.7ZM45.1073 8.12L46.3073 7.66C46.5473 8.46 47.114 8.86 48.0073 8.86C48.9007 8.86 49.4673 8.46 49.7073 7.66L50.9073 8.12C50.694 8.72 50.3273 9.19333 49.8073 9.54C49.3007 9.88667 48.7007 10.06 48.0073 10.06C47.314 10.06 46.7073 9.88667 46.1873 9.54C45.6807 9.19333 45.3207 8.72 45.1073 8.12ZM59.6711 13.02H57.0711V20H55.6311V13.02H53.0311V11.7H59.6711V13.02ZM61.1842 11.7H62.6242V17.18L68.3042 11.06V20H66.8642V14.46L61.1842 20.58V11.7Z" fill="black"/>
<path d="M101.707 14.7071C102.098 14.3166 102.098 13.6834 101.707 13.2929L95.3431 6.92893C94.9526 6.53841 94.3195 6.53841 93.9289 6.92893C93.5384 7.31946 93.5384 7.95262 93.9289 8.34315L99.5858 14L93.9289 19.6569C93.5384 20.0474 93.5384 20.6805 93.9289 21.0711C94.3195 21.4616 94.9526 21.4616 95.3431 21.0711L101.707 14.7071ZM79 15H101V13H79V15Z" fill="#C82132"/>
</svg>
